<svg xmlns="http://www.w3.org/2000/svg" class="icon icon-accordion icon-linkedin" viewBox="0 0 100 100"><path fill="currentColor" fill-rule="evenodd" d="M88.8889 0C91.8357 0 94.6619 1.17063 96.7456 3.25437C98.8294 5.33811 100 8.16426 100 11.1111V88.8889C100 91.8357 98.8294 94.6619 96.7456 96.7456C94.6619 98.8294 91.8357 100 88.8889 100H11.1111C8.16426 100 5.33811 98.8294 3.25437 96.7456C1.17063 94.6619 0 91.8357 0 88.8889V11.1111C0 8.16426 1.17063 5.33811 3.25437 3.25437C5.33811 1.17063 8.16426 0 11.1111 0H88.8889ZM86.1111 86.1111V56.6667C86.1111 51.8633 84.203 47.2567 80.8065 43.8602C77.41 40.4637 72.8034 38.5556 68 38.5556C63.2778 38.5556 57.7778 41.4444 55.1111 45.7778V39.6111H39.6111V86.1111H55.1111V58.7222C55.1111 54.4444 58.5556 50.9444 62.8333 50.9444C64.8961 50.9444 66.8744 51.7639 68.3331 53.2225C69.7917 54.6811 70.6111 56.6594 70.6111 58.7222V86.1111H86.1111ZM21.5556 30.8889C24.0309 30.8889 26.4049 29.9056 28.1552 28.1552C29.9056 26.4049 30.8889 24.0309 30.8889 21.5556C30.8889 16.3889 26.7222 12.1667 21.5556 12.1667C19.0655 12.1667 16.6774 13.1558 14.9166 14.9166C13.1558 16.6774 12.1667 19.0655 12.1667 21.5556C12.1667 26.7222 16.3889 30.8889 21.5556 30.8889ZM29.2778 86.1111V39.6111H13.8889V86.1111H29.2778Z"/></svg>